<svg xmlns="http://www.w3.org/2000/svg" xmlns:xlink="http://www.w3.org/1999/xlink" width="500" zoomAndPan="magnify" viewBox="0 0 375 374.999991" height="500" preserveAspectRatio="xMidYMid meet" version="1.0"><defs><g/><clipPath id="a8dbdf7ee3"><path d="M 26 77.097656 L 260 77.097656 L 260 180 L 26 180 Z M 26 77.097656 " clip-rule="nonzero"/></clipPath><clipPath id="02d1b72fd5"><path d="M 136 198 L 356 198 L 356 241.902344 L 136 241.902344 Z M 136 198 " clip-rule="nonzero"/></clipPath></defs><g clip-path="url(#a8dbdf7ee3)"><path fill="#cb2840" d="M 259.707031 160.042969 C 238.910156 135.4375 218.109375 110.832031 197.308594 86.226562 C 169.152344 90.414062 140.996094 94.597656 112.839844 98.785156 C 112.839844 107.410156 112.839844 116.035156 112.839844 124.65625 C 110.8125 124.785156 108.785156 124.910156 106.753906 125.039062 C 106.371094 109.058594 105.992188 93.078125 105.613281 77.097656 C 98.128906 77.605469 90.644531 78.113281 83.164062 78.621094 C 82.785156 87.117188 82.402344 95.613281 82.023438 104.113281 C 73.273438 105.886719 64.523438 107.664062 55.769531 109.4375 C 46.003906 124.910156 36.234375 140.386719 26.472656 155.859375 C 52.632812 184.011719 90.234375 185.660156 135.671875 169.175781 C 154.566406 145.839844 173.46875 122.503906 192.363281 99.164062 C 208.339844 118.699219 224.324219 138.226562 240.304688 157.761719 C 246.769531 158.523438 253.238281 159.28125 259.707031 160.042969 Z M 259.707031 160.042969 " fill-opacity="1" fill-rule="evenodd"/></g><path fill="#cb2840" d="M 234.214844 123.136719 L 212.527344 94.980469 L 258.566406 93.460938 L 335.804688 182.492188 L 309.171875 171.839844 L 252.480469 106.777344 Z M 234.214844 123.136719 " fill-opacity="1" fill-rule="evenodd"/><path fill="#cb2840" d="M 203.484375 124.355469 L 194.113281 124.300781 L 194.113281 134.757812 L 203.484375 134.8125 Z M 180.410156 124.21875 L 180.410156 134.675781 L 189.785156 134.730469 L 189.785156 124.273438 Z M 189.785156 139.058594 L 180.410156 139 L 180.410156 157.027344 L 189.785156 157.082031 Z M 203.484375 139.140625 L 194.113281 139.082031 L 194.113281 157.109375 L 203.484375 157.167969 Z M 203.484375 139.140625 " fill-opacity="1" fill-rule="evenodd"/><path fill="#cb2840" d="M 243.074219 122.605469 L 243.074219 132.21875 L 251.695312 132.269531 L 251.695312 122.65625 Z M 251.695312 136.25 L 244.328125 136.207031 L 251.695312 144.96875 Z M 264.292969 122.734375 L 255.671875 122.679688 L 255.671875 132.292969 L 264.292969 132.347656 Z M 264.292969 136.328125 L 255.671875 136.273438 L 255.671875 149.707031 L 257.773438 152.207031 L 264.292969 152.902344 Z M 264.292969 136.328125 " fill-opacity="1" fill-rule="evenodd"/><path fill="#cb2840" d="M 370.3125 227.792969 C 317.820312 166.46875 244.550781 150.785156 154.726562 175.363281 C 73.84375 197.496094 24.070312 184.152344 4.675781 132.742188 C 16.242188 204.351562 65.1875 234.21875 139.414062 210.625 C 247.097656 176.394531 315.648438 185.335938 370.3125 227.792969 Z M 370.3125 227.792969 " fill-opacity="1" fill-rule="evenodd"/><g clip-path="url(#02d1b72fd5)"><path fill="#cb2840" d="M 355.308594 241.59375 C 328.832031 201.183594 282.070312 189.925781 219.035156 205.105469 C 191.167969 211.816406 163.710938 218.035156 136.046875 222.273438 C 163.761719 223.628906 193.367188 221.84375 226.078125 218.289062 C 280.652344 212.363281 322.707031 222.175781 355.308594 241.59375 Z M 355.308594 241.59375 " fill-opacity="1" fill-rule="evenodd"/></g><g fill="#cb2840" fill-opacity="1"><g transform="translate(20.160345, 284.191358)"><g><path d="M 2.3125 0 C 2.1875 0 2.125 -0.15625 2.125 -0.46875 L 2.125 -0.734375 C 2.125 -0.859375 2.203125 -0.921875 2.359375 -0.921875 C 2.515625 -0.921875 2.742188 -0.96875 3.046875 -1.0625 C 3.347656 -1.15625 3.578125 -1.21875 3.734375 -1.25 C 5.304688 -1.601562 6.09375 -2.5 6.09375 -3.9375 L 6.09375 -28.375 C 6.09375 -29.800781 5.828125 -30.707031 5.296875 -31.09375 C 4.773438 -31.488281 3.828125 -31.6875 2.453125 -31.6875 L 1.40625 -31.6875 C 1.082031 -31.6875 0.921875 -31.875 0.921875 -32.25 C 0.921875 -32.457031 1.023438 -32.585938 1.234375 -32.640625 L 1.390625 -32.640625 L 14.375 -32.984375 L 16.71875 -32.984375 C 19.476562 -32.796875 21.773438 -31.800781 23.609375 -30 C 25.441406 -28.195312 26.359375 -26.03125 26.359375 -23.5 C 26.359375 -20.976562 25.457031 -18.691406 23.65625 -16.640625 C 22.863281 -15.734375 21.972656 -15 20.984375 -14.4375 C 20.003906 -13.875 19.035156 -13.582031 18.078125 -13.5625 L 11.140625 -13.84375 L 10.953125 -13.84375 C 10.722656 -13.84375 10.609375 -13.734375 10.609375 -13.515625 L 10.609375 -4 C 10.609375 -3.15625 10.835938 -2.53125 11.296875 -2.125 C 11.753906 -1.726562 12.734375 -1.414062 14.234375 -1.1875 C 14.429688 -1.15625 14.753906 -1.101562 15.203125 -1.03125 C 15.648438 -0.957031 15.953125 -0.921875 16.109375 -0.921875 C 16.265625 -0.921875 16.34375 -0.859375 16.34375 -0.734375 L 16.34375 -0.1875 C 16.34375 -0.0625 16.28125 0 16.15625 0 Z M 12.46875 -31.8125 C 12.289062 -31.8125 12.097656 -31.804688 11.890625 -31.796875 C 11.679688 -31.785156 11.414062 -31.773438 11.09375 -31.765625 C 10.769531 -31.765625 10.609375 -31.640625 10.609375 -31.390625 L 10.609375 -16.453125 L 10.640625 -15.765625 C 10.691406 -15.441406 10.84375 -15.269531 11.09375 -15.25 L 13.453125 -15.109375 C 15.929688 -15.109375 17.929688 -15.941406 19.453125 -17.609375 C 20.972656 -19.273438 21.734375 -21.367188 21.734375 -23.890625 C 21.734375 -26.421875 20.992188 -28.378906 19.515625 -29.765625 C 18.046875 -31.148438 16.085938 -31.84375 13.640625 -31.84375 C 13.421875 -31.84375 13.21875 -31.835938 13.03125 -31.828125 C 12.84375 -31.828125 12.65625 -31.820312 12.46875 -31.8125 Z M 12.46875 -31.8125 "/></g></g></g><g fill="#cb2840" fill-opacity="1"><g transform="translate(49.134931, 284.191358)"><g><path d="M 1.203125 0 C 1.078125 0 1.015625 -0.15625 1.015625 -0.46875 L 1.015625 -0.734375 C 1.015625 -0.859375 1.078125 -0.921875 1.203125 -0.921875 C 1.296875 -0.921875 1.441406 -0.9375 1.640625 -0.96875 C 1.835938 -1 2.046875 -1.03125 2.265625 -1.0625 C 2.484375 -1.09375 2.679688 -1.128906 2.859375 -1.171875 C 3.046875 -1.210938 3.179688 -1.238281 3.265625 -1.25 C 4.835938 -1.601562 5.625 -2.5 5.625 -3.9375 L 5.625 -28.375 C 5.625 -29.707031 5.09375 -30.648438 4.03125 -31.203125 C 3.394531 -31.546875 2.710938 -31.71875 1.984375 -31.71875 L 1.109375 -31.71875 C 0.984375 -31.71875 0.921875 -31.773438 0.921875 -31.890625 L 0.921875 -32.453125 C 0.921875 -32.578125 1.015625 -32.640625 1.203125 -32.640625 L 13.90625 -32.984375 L 16.25 -32.984375 C 18.976562 -32.796875 21.265625 -31.800781 23.109375 -30 C 24.953125 -28.207031 25.875 -25.992188 25.875 -23.359375 C 25.875 -20.734375 24.78125 -18.6875 22.59375 -17.21875 C 21.914062 -16.769531 21.179688 -16.367188 20.390625 -16.015625 L 27.40625 -4.5625 C 28.625 -2.550781 30.257812 -1.140625 32.3125 -0.328125 C 32.476562 -0.273438 32.5625 -0.164062 32.5625 0 C 32.5625 0.382812 32.3125 0.578125 31.8125 0.578125 C 28.332031 0.578125 25.566406 -0.738281 23.515625 -3.375 C 23.066406 -3.96875 22.617188 -4.625 22.171875 -5.34375 L 16.1875 -14.75 L 10.671875 -15 L 10.484375 -15 C 10.253906 -15 10.140625 -14.890625 10.140625 -14.671875 L 10.140625 -4 C 10.140625 -3.15625 10.378906 -2.523438 10.859375 -2.109375 C 11.335938 -1.691406 12.160156 -1.40625 13.328125 -1.25 C 13.640625 -1.207031 14.019531 -1.140625 14.46875 -1.046875 C 14.914062 -0.960938 15.21875 -0.921875 15.375 -0.921875 C 15.539062 -0.921875 15.625 -0.859375 15.625 -0.734375 L 15.625 -0.1875 C 15.625 -0.0625 15.5625 0 15.4375 0 Z M 12.015625 -31.765625 C 11.828125 -31.765625 11.628906 -31.757812 11.421875 -31.75 C 11.210938 -31.738281 10.945312 -31.726562 10.625 -31.71875 C 10.300781 -31.71875 10.140625 -31.59375 10.140625 -31.34375 L 10.140625 -17.3125 L 10.1875 -16.625 C 10.226562 -16.300781 10.375 -16.128906 10.625 -16.109375 L 12.984375 -15.96875 C 17.316406 -15.96875 19.929688 -17.507812 20.828125 -20.59375 C 21.117188 -21.570312 21.265625 -22.6875 21.265625 -23.9375 C 21.265625 -26.375 20.503906 -28.296875 18.984375 -29.703125 C 17.472656 -31.109375 15.535156 -31.8125 13.171875 -31.8125 C 12.953125 -31.8125 12.75 -31.804688 12.5625 -31.796875 C 12.382812 -31.785156 12.203125 -31.773438 12.015625 -31.765625 Z M 12.015625 -31.765625 "/></g></g></g><g fill="#cb2840" fill-opacity="1"><g transform="translate(82.923305, 284.191358)"><g><path d="M 0.15625 -0.1875 L 0.15625 -0.828125 C 0.15625 -0.953125 0.21875 -1.015625 0.34375 -1.015625 L 0.859375 -1.015625 C 1.503906 -1.066406 2.164062 -1.09375 2.84375 -1.09375 C 3.519531 -1.101562 4.140625 -1.1875 4.703125 -1.34375 C 5.960938 -1.707031 6.59375 -2.632812 6.59375 -4.125 L 6.59375 -28.515625 C 6.59375 -30.046875 5.691406 -31.019531 3.890625 -31.4375 C 3.378906 -31.539062 2.863281 -31.632812 2.34375 -31.71875 L 1.859375 -31.71875 C 1.734375 -31.71875 1.671875 -31.773438 1.671875 -31.890625 L 1.671875 -32.453125 C 1.671875 -32.578125 1.734375 -32.640625 1.859375 -32.640625 L 23.859375 -32.640625 C 24.140625 -32.640625 24.34375 -32.585938 24.46875 -32.484375 C 24.59375 -32.390625 24.671875 -32.171875 24.703125 -31.828125 L 25.109375 -25.109375 C 25.109375 -24.960938 24.992188 -24.890625 24.765625 -24.890625 C 24.535156 -24.890625 24.367188 -24.957031 24.265625 -25.09375 C 24.171875 -25.25 24.050781 -25.8125 23.90625 -26.78125 C 23.757812 -27.75 23.488281 -28.554688 23.09375 -29.203125 C 22.707031 -29.859375 22.03125 -30.269531 21.0625 -30.4375 L 11.40625 -30.4375 C 11.207031 -30.4375 11.109375 -30.335938 11.109375 -30.140625 L 11.109375 -18.171875 C 11.109375 -18.015625 11.1875 -17.9375 11.34375 -17.9375 L 19.34375 -17.9375 C 21.414062 -17.9375 22.453125 -19.140625 22.453125 -21.546875 C 22.453125 -21.671875 22.515625 -21.734375 22.640625 -21.734375 L 23.1875 -21.734375 C 23.3125 -21.734375 23.375 -21.671875 23.375 -21.546875 L 23.375 -11.640625 C 23.375 -11.515625 23.3125 -11.453125 23.1875 -11.453125 L 22.640625 -11.453125 C 22.515625 -11.453125 22.453125 -11.515625 22.453125 -11.640625 C 22.453125 -13.921875 21.789062 -15.238281 20.46875 -15.59375 C 20.09375 -15.6875 19.695312 -15.734375 19.28125 -15.734375 L 11.34375 -15.734375 C 11.1875 -15.734375 11.109375 -15.660156 11.109375 -15.515625 L 11.109375 -4.234375 C 11.109375 -3.078125 11.640625 -2.421875 12.703125 -2.265625 C 13.015625 -2.222656 13.34375 -2.203125 13.6875 -2.203125 L 21.390625 -2.203125 C 22.972656 -2.203125 24.207031 -2.90625 25.09375 -4.3125 C 25.726562 -5.3125 26.113281 -6.457031 26.25 -7.75 C 26.289062 -8.1875 26.519531 -8.40625 26.9375 -8.40625 C 27.125 -8.40625 27.21875 -8.304688 27.21875 -8.109375 L 26.453125 -0.328125 C 26.359375 -0.109375 26.253906 0 26.140625 0 L 0.34375 0 C 0.21875 0 0.15625 -0.0625 0.15625 -0.1875 Z M 0.15625 -0.1875 "/></g></g></g><g fill="#cb2840" fill-opacity="1"><g transform="translate(113.124479, 284.191358)"><g><path d="M 11.59375 -0.921875 C 11.6875 -0.921875 11.734375 -0.859375 11.734375 -0.734375 L 11.734375 -0.1875 C 11.734375 -0.0625 11.6875 0 11.59375 0 L 0.78125 0 C 0.664062 0 0.609375 -0.0625 0.609375 -0.1875 L 0.609375 -0.734375 C 0.609375 -0.859375 0.664062 -0.921875 0.78125 -0.921875 C 3.3125 -0.921875 4.6875 -2.007812 4.90625 -4.1875 C 4.96875 -4.820312 5.03125 -5.875 5.09375 -7.34375 C 5.164062 -8.820312 5.375 -11.992188 5.71875 -16.859375 C 6.0625 -21.734375 6.234375 -25.675781 6.234375 -28.6875 L 6.234375 -29.53125 C 6.234375 -30.15625 5.878906 -30.675781 5.171875 -31.09375 C 4.472656 -31.507812 3.957031 -31.71875 3.625 -31.71875 C 3.300781 -31.71875 3.140625 -31.773438 3.140625 -31.890625 L 3.140625 -32.453125 C 3.140625 -32.578125 3.203125 -32.640625 3.328125 -32.640625 L 10.015625 -32.640625 C 10.316406 -32.585938 10.554688 -32.414062 10.734375 -32.125 L 21.59375 -7.9375 C 21.675781 -7.832031 21.738281 -7.738281 21.78125 -7.65625 C 21.820312 -7.582031 21.9375 -7.546875 22.125 -7.546875 C 22.3125 -7.554688 22.453125 -7.695312 22.546875 -7.96875 L 33.28125 -31.71875 C 33.601562 -32.332031 33.898438 -32.640625 34.171875 -32.640625 L 40.90625 -32.640625 C 41.03125 -32.640625 41.09375 -32.578125 41.09375 -32.453125 L 41.09375 -31.890625 C 41.09375 -31.773438 41.050781 -31.71875 40.96875 -31.71875 C 40.507812 -31.71875 39.941406 -31.5625 39.265625 -31.25 C 38.222656 -30.789062 37.703125 -30.101562 37.703125 -29.1875 L 39.09375 -3.609375 C 39.125 -2.804688 39.539062 -2.15625 40.34375 -1.65625 C 41.144531 -1.164062 42.195312 -0.921875 43.5 -0.921875 C 43.613281 -0.921875 43.671875 -0.859375 43.671875 -0.734375 L 43.671875 -0.1875 C 43.671875 -0.0625 43.613281 0 43.5 0 L 30.34375 0 C 30.21875 0 30.15625 -0.0625 30.15625 -0.1875 L 30.15625 -0.734375 C 30.15625 -0.859375 30.21875 -0.921875 30.34375 -0.921875 C 33.101562 -0.921875 34.484375 -1.59375 34.484375 -2.9375 L 33.265625 -25.046875 C 33.242188 -25.203125 33.195312 -25.28125 33.125 -25.28125 C 33.0625 -25.28125 33.007812 -25.207031 32.96875 -25.0625 L 21.453125 -0.15625 C 21.390625 -0.0507812 21.210938 0 20.921875 0 C 20.628906 0 20.460938 -0.0625 20.421875 -0.1875 L 9.078125 -25.140625 C 8.984375 -25.359375 8.894531 -25.46875 8.8125 -25.46875 C 8.726562 -25.46875 8.6875 -25.296875 8.6875 -24.953125 C 8.6875 -24.242188 8.5 -20.894531 8.125 -14.90625 C 7.75 -8.914062 7.5625 -5.179688 7.5625 -3.703125 L 7.5625 -2.75 C 7.75 -1.875 8.625 -1.304688 10.1875 -1.046875 C 10.632812 -0.960938 11.101562 -0.921875 11.59375 -0.921875 Z M 11.59375 -0.921875 "/></g></g></g><g fill="#cb2840" fill-opacity="1"><g transform="translate(158.715887, 284.191358)"><g/></g></g><g fill="#cb2840" fill-opacity="1"><g transform="translate(172.392805, 284.191358)"><g><path d="M 31.140625 -0.875 C 31.054688 -0.75 30.863281 -0.722656 30.5625 -0.796875 C 30.257812 -0.867188 29.90625 -0.90625 29.5 -0.90625 C 29.101562 -0.90625 28.539062 -0.820312 27.8125 -0.65625 C 27.082031 -0.5 25.925781 -0.25 24.34375 0.09375 C 22.769531 0.445312 21.335938 0.625 20.046875 0.625 C 17.109375 0.625 14.265625 -0.0625 11.515625 -1.4375 C 8.765625 -2.820312 6.5625 -4.785156 4.90625 -7.328125 C 3.257812 -9.867188 2.4375 -12.8125 2.4375 -16.15625 C 2.4375 -19.507812 3.257812 -22.539062 4.90625 -25.25 C 7.3125 -29.226562 10.9375 -31.820312 15.78125 -33.03125 C 17.320312 -33.414062 18.867188 -33.609375 20.421875 -33.609375 C 22.535156 -33.609375 25.039062 -33.253906 27.9375 -32.546875 C 28.820312 -32.328125 29.566406 -32.101562 30.171875 -31.875 C 30.785156 -31.644531 31.160156 -31.53125 31.296875 -31.53125 L 31.984375 -31.71875 L 32.703125 -31.71875 C 32.890625 -31.71875 32.984375 -31.582031 32.984375 -31.3125 L 32.984375 -24.125 C 32.984375 -23.96875 32.84375 -23.890625 32.5625 -23.890625 C 32.289062 -23.890625 32.128906 -23.921875 32.078125 -23.984375 C 32.035156 -24.054688 31.988281 -24.140625 31.9375 -24.234375 C 31.894531 -24.335938 31.847656 -24.441406 31.796875 -24.546875 C 31.742188 -24.660156 31.6875 -24.765625 31.625 -24.859375 C 31.570312 -24.953125 31.539062 -25.019531 31.53125 -25.0625 C 29.21875 -29.707031 25.707031 -32.03125 21 -32.03125 C 16.75 -32.03125 13.425781 -30.679688 11.03125 -27.984375 C 8.644531 -25.285156 7.453125 -21.707031 7.453125 -17.25 C 7.453125 -12.800781 8.765625 -8.976562 11.390625 -5.78125 C 14.023438 -2.59375 17.601562 -1 22.125 -1 C 24.59375 -1 26.84375 -1.726562 28.875 -3.1875 C 30.90625 -4.65625 32.5 -6.457031 33.65625 -8.59375 C 33.6875 -8.6875 33.78125 -8.734375 33.9375 -8.734375 L 34.234375 -8.734375 C 34.390625 -8.734375 34.46875 -8.640625 34.46875 -8.453125 C 34.46875 -8.265625 34.421875 -8.085938 34.328125 -7.921875 Z M 31.140625 -0.875 "/></g></g></g><g fill="#cb2840" fill-opacity="1"><g transform="translate(209.583223, 284.191358)"><g><path d="M 33.71875 -4.1875 C 33.71875 -2.101562 35.160156 -1.015625 38.046875 -0.921875 C 38.171875 -0.921875 38.234375 -0.859375 38.234375 -0.734375 L 38.234375 -0.1875 C 38.234375 -0.0625 38.171875 0 38.046875 0 L 23.328125 0 C 23.203125 0 23.140625 -0.0625 23.140625 -0.1875 L 23.140625 -0.734375 C 23.140625 -0.859375 23.523438 -0.921875 24.296875 -0.921875 C 25.078125 -0.921875 25.957031 -1.09375 26.9375 -1.4375 C 28.457031 -1.925781 29.21875 -2.757812 29.21875 -3.9375 L 29.21875 -14.96875 C 29.21875 -15.125 29.191406 -15.222656 29.140625 -15.265625 C 29.097656 -15.316406 29 -15.34375 28.84375 -15.34375 L 10.609375 -15.34375 C 10.453125 -15.34375 10.347656 -15.316406 10.296875 -15.265625 C 10.253906 -15.222656 10.234375 -15.125 10.234375 -14.96875 L 10.234375 -3.703125 C 10.234375 -1.847656 11.597656 -0.921875 14.328125 -0.921875 C 14.453125 -0.921875 14.515625 -0.859375 14.515625 -0.734375 L 14.515625 -0.1875 C 14.515625 -0.0625 14.457031 0 14.34375 0 L 1.578125 0 C 1.453125 0 1.390625 -0.0625 1.390625 -0.1875 L 1.390625 -0.734375 C 1.390625 -0.859375 1.546875 -0.921875 1.859375 -0.921875 C 4.429688 -0.921875 5.71875 -2.023438 5.71875 -4.234375 L 5.71875 -28.9375 C 5.71875 -30.738281 4.644531 -31.695312 2.5 -31.8125 C 2.175781 -31.820312 2.015625 -31.890625 2.015625 -32.015625 L 2.015625 -32.453125 C 2.015625 -32.578125 2.066406 -32.640625 2.171875 -32.640625 L 13.796875 -32.640625 C 13.921875 -32.640625 13.984375 -32.578125 13.984375 -32.453125 L 13.984375 -32.015625 C 13.984375 -31.921875 13.835938 -31.875 13.546875 -31.875 C 11.335938 -31.875 10.234375 -30.785156 10.234375 -28.609375 L 10.234375 -17.921875 C 10.234375 -17.765625 10.253906 -17.660156 10.296875 -17.609375 C 10.347656 -17.566406 10.453125 -17.546875 10.609375 -17.546875 L 28.84375 -17.546875 C 29 -17.546875 29.097656 -17.566406 29.140625 -17.609375 C 29.191406 -17.660156 29.21875 -17.765625 29.21875 -17.921875 L 29.21875 -28.984375 C 29.1875 -29.117188 29.164062 -29.242188 29.15625 -29.359375 C 29.144531 -29.472656 29.117188 -29.65625 29.078125 -29.90625 C 28.960938 -30.425781 28.410156 -30.851562 27.421875 -31.1875 C 26.441406 -31.519531 25.328125 -31.734375 24.078125 -31.828125 C 23.953125 -31.828125 23.890625 -31.890625 23.890625 -32.015625 L 23.890625 -32.453125 C 23.890625 -32.578125 23.941406 -32.640625 24.046875 -32.640625 L 37.40625 -32.640625 C 37.53125 -32.640625 37.59375 -32.578125 37.59375 -32.453125 L 37.59375 -32.015625 C 37.59375 -31.921875 37.445312 -31.875 37.15625 -31.875 C 34.863281 -31.875 33.71875 -30.785156 33.71875 -28.609375 Z M 33.71875 -4.1875 "/></g></g></g><g fill="#cb2840" fill-opacity="1"><g transform="translate(250.152559, 284.191358)"><g><path d="M 12.3125 -0.1875 C 12.3125 -0.0625 12.25 0 12.125 0 L 0.296875 0 C 0.171875 0 0.109375 -0.0625 0.109375 -0.1875 L 0.109375 -0.734375 C 0.109375 -0.859375 0.210938 -0.921875 0.421875 -0.921875 C 2.535156 -1.015625 3.960938 -2.144531 4.703125 -4.3125 L 14.140625 -31.640625 C 14.160156 -31.671875 14.171875 -31.710938 14.171875 -31.765625 L 13.90625 -32.515625 C 13.90625 -32.597656 13.9375 -32.640625 14 -32.640625 L 18.640625 -32.640625 C 18.671875 -32.617188 18.710938 -32.597656 18.765625 -32.578125 C 18.816406 -32.566406 18.859375 -32.523438 18.890625 -32.453125 L 28.6875 -4.984375 C 28.894531 -4.566406 29.0625 -4.1875 29.1875 -3.84375 C 29.320312 -3.5 29.476562 -3.191406 29.65625 -2.921875 C 30.019531 -2.285156 30.628906 -1.796875 31.484375 -1.453125 C 32.191406 -1.097656 32.835938 -0.921875 33.421875 -0.921875 C 33.546875 -0.921875 33.609375 -0.851562 33.609375 -0.71875 L 33.609375 -0.1875 C 33.609375 -0.0625 33.546875 0 33.421875 0 L 19.265625 0 C 19.140625 0 19.078125 -0.0625 19.078125 -0.1875 L 19.078125 -0.734375 C 19.078125 -0.859375 19.359375 -0.9375 19.921875 -0.96875 C 20.492188 -1 20.96875 -1.03125 21.34375 -1.0625 C 23.488281 -1.289062 24.5625 -2.015625 24.5625 -3.234375 C 24.5625 -3.328125 24.546875 -3.4375 24.515625 -3.5625 L 21.015625 -13.421875 C 21.003906 -13.453125 20.972656 -13.523438 20.921875 -13.640625 C 20.734375 -14.160156 20.410156 -14.421875 19.953125 -14.421875 L 11.734375 -14.421875 C 11.273438 -14.421875 10.910156 -14.164062 10.640625 -13.65625 C 10.597656 -13.550781 10.578125 -13.488281 10.578125 -13.46875 L 7.109375 -3.3125 L 7.109375 -3.109375 C 7.109375 -2.703125 7.316406 -2.335938 7.734375 -2.015625 C 8.671875 -1.285156 9.9375 -0.921875 11.53125 -0.921875 L 12.125 -0.921875 C 12.25 -0.921875 12.3125 -0.859375 12.3125 -0.734375 Z M 19.171875 -16.984375 C 19.441406 -16.984375 19.578125 -17.101562 19.578125 -17.34375 C 19.578125 -17.457031 19.546875 -17.59375 19.484375 -17.75 L 16.046875 -27.25 C 15.890625 -27.664062 15.769531 -27.875 15.6875 -27.875 C 15.613281 -27.875 15.492188 -27.65625 15.328125 -27.21875 L 12.078125 -17.75 C 12.015625 -17.59375 11.984375 -17.425781 11.984375 -17.25 C 11.984375 -17.070312 12.101562 -16.984375 12.34375 -16.984375 Z M 19.171875 -16.984375 "/></g></g></g><g fill="#cb2840" fill-opacity="1"><g transform="translate(284.820373, 284.191358)"><g><path d="M 12.171875 0 C 11.648438 0 11.390625 -0.15625 11.390625 -0.46875 L 11.390625 -0.6875 C 11.390625 -0.9375 11.613281 -1.085938 12.0625 -1.140625 C 12.519531 -1.203125 12.820312 -1.238281 12.96875 -1.25 C 14.132812 -1.375 14.957031 -1.660156 15.4375 -2.109375 C 15.914062 -2.566406 16.15625 -3.253906 16.15625 -4.171875 L 16.15625 -11.828125 C 16.15625 -11.929688 16.132812 -12.046875 16.09375 -12.171875 L 6.625 -27.265625 C 5.132812 -29.628906 3.664062 -30.988281 2.21875 -31.34375 C 2.144531 -31.351562 2.003906 -31.378906 1.796875 -31.421875 C 1.597656 -31.472656 1.15625 -31.554688 0.46875 -31.671875 C 0.21875 -31.710938 0.09375 -31.882812 0.09375 -32.1875 C 0.09375 -32.488281 0.207031 -32.640625 0.4375 -32.640625 L 13.6875 -32.640625 C 13.945312 -32.640625 14.078125 -32.484375 14.078125 -32.171875 C 14.078125 -31.867188 13.945312 -31.71875 13.6875 -31.71875 C 12.644531 -31.601562 11.957031 -31.492188 11.625 -31.390625 C 10.851562 -31.109375 10.46875 -30.613281 10.46875 -29.90625 C 10.46875 -29.53125 10.554688 -29.195312 10.734375 -28.90625 L 18.5625 -16.40625 C 18.726562 -16.164062 18.832031 -16.007812 18.875 -15.9375 C 18.914062 -15.863281 19 -15.828125 19.125 -15.828125 C 19.257812 -15.828125 19.46875 -16.050781 19.75 -16.5 L 26 -27.125 C 26.175781 -27.5 26.382812 -27.894531 26.625 -28.3125 C 26.863281 -28.738281 26.984375 -29.175781 26.984375 -29.625 C 26.984375 -30.75 26.210938 -31.414062 24.671875 -31.625 C 24.117188 -31.695312 23.816406 -31.78125 23.765625 -31.875 C 23.722656 -31.96875 23.703125 -32.082031 23.703125 -32.21875 C 23.703125 -32.5 23.832031 -32.640625 24.09375 -32.640625 L 34.90625 -32.640625 C 35.125 -32.640625 35.234375 -32.53125 35.234375 -32.3125 C 35.234375 -32.09375 35.195312 -31.945312 35.125 -31.875 C 35.050781 -31.800781 34.957031 -31.742188 34.84375 -31.703125 C 34.726562 -31.660156 34.601562 -31.628906 34.46875 -31.609375 C 34.332031 -31.585938 34.03125 -31.519531 33.5625 -31.40625 C 32.476562 -31.144531 31.304688 -30.289062 30.046875 -28.84375 C 29.910156 -28.675781 29.832031 -28.578125 29.8125 -28.546875 L 20.671875 -12.796875 L 20.671875 -4.171875 C 20.671875 -3.335938 20.90625 -2.679688 21.375 -2.203125 C 21.84375 -1.722656 22.632812 -1.410156 23.75 -1.265625 C 24.875 -1.117188 25.4375 -0.9375 25.4375 -0.71875 L 25.4375 -0.46875 C 25.4375 -0.15625 25.175781 0 24.65625 0 Z M 12.171875 0 "/></g></g></g><g fill="#cb2840" fill-opacity="1"><g transform="translate(321.108219, 284.191358)"><g><path d="M 12.3125 -0.1875 C 12.3125 -0.0625 12.25 0 12.125 0 L 0.296875 0 C 0.171875 0 0.109375 -0.0625 0.109375 -0.1875 L 0.109375 -0.734375 C 0.109375 -0.859375 0.210938 -0.921875 0.421875 -0.921875 C 2.535156 -1.015625 3.960938 -2.144531 4.703125 -4.3125 L 14.140625 -31.640625 C 14.160156 -31.671875 14.171875 -31.710938 14.171875 -31.765625 L 13.90625 -32.515625 C 13.90625 -32.597656 13.9375 -32.640625 14 -32.640625 L 18.640625 -32.640625 C 18.671875 -32.617188 18.710938 -32.597656 18.765625 -32.578125 C 18.816406 -32.566406 18.859375 -32.523438 18.890625 -32.453125 L 28.6875 -4.984375 C 28.894531 -4.566406 29.0625 -4.1875 29.1875 -3.84375 C 29.320312 -3.5 29.476562 -3.191406 29.65625 -2.921875 C 30.019531 -2.285156 30.628906 -1.796875 31.484375 -1.453125 C 32.191406 -1.097656 32.835938 -0.921875 33.421875 -0.921875 C 33.546875 -0.921875 33.609375 -0.851562 33.609375 -0.71875 L 33.609375 -0.1875 C 33.609375 -0.0625 33.546875 0 33.421875 0 L 19.265625 0 C 19.140625 0 19.078125 -0.0625 19.078125 -0.1875 L 19.078125 -0.734375 C 19.078125 -0.859375 19.359375 -0.9375 19.921875 -0.96875 C 20.492188 -1 20.96875 -1.03125 21.34375 -1.0625 C 23.488281 -1.289062 24.5625 -2.015625 24.5625 -3.234375 C 24.5625 -3.328125 24.546875 -3.4375 24.515625 -3.5625 L 21.015625 -13.421875 C 21.003906 -13.453125 20.972656 -13.523438 20.921875 -13.640625 C 20.734375 -14.160156 20.410156 -14.421875 19.953125 -14.421875 L 11.734375 -14.421875 C 11.273438 -14.421875 10.910156 -14.164062 10.640625 -13.65625 C 10.597656 -13.550781 10.578125 -13.488281 10.578125 -13.46875 L 7.109375 -3.3125 L 7.109375 -3.109375 C 7.109375 -2.703125 7.316406 -2.335938 7.734375 -2.015625 C 8.671875 -1.285156 9.9375 -0.921875 11.53125 -0.921875 L 12.125 -0.921875 C 12.25 -0.921875 12.3125 -0.859375 12.3125 -0.734375 Z M 19.171875 -16.984375 C 19.441406 -16.984375 19.578125 -17.101562 19.578125 -17.34375 C 19.578125 -17.457031 19.546875 -17.59375 19.484375 -17.75 L 16.046875 -27.25 C 15.890625 -27.664062 15.769531 -27.875 15.6875 -27.875 C 15.613281 -27.875 15.492188 -27.65625 15.328125 -27.21875 L 12.078125 -17.75 C 12.015625 -17.59375 11.984375 -17.425781 11.984375 -17.25 C 11.984375 -17.070312 12.101562 -16.984375 12.34375 -16.984375 Z M 19.171875 -16.984375 "/></g></g></g></svg>